<?xml version="1.0" encoding="utf-8"?>
<!-- Generator: Adobe Illustrator 16.0.0, SVG Export Plug-In . SVG Version: 6.00 Build 0)  -->
<!DOCTYPE svg PUBLIC "-//W3C//DTD SVG 1.1//EN" "http://www.w3.org/Graphics/SVG/1.1/DTD/svg11.dtd">
<svg version="1.1" id="Layer_1" xmlns="http://www.w3.org/2000/svg" xmlns:xlink="http://www.w3.org/1999/xlink" x="0px" y="0px"
	 width="250px" height="100px" viewBox="0 0 250 100" enable-background="new 0 0 250 100" xml:space="preserve">
<g>
	<g>
		<path fill="#448840" d="M54.313,56.551H35.218c-10.652,0-19.319-7.387-19.319-16.467s8.667-16.467,19.319-16.467h19.095
			c3.286,0,5.95-2.664,5.95-5.949c0-3.286-2.664-5.95-5.95-5.95H35.218C18.004,11.717,4,24.443,4,40.084
			s14.004,28.368,31.218,28.368h19.095c3.286,0,5.95-2.664,5.95-5.95S57.599,56.551,54.313,56.551z"/>
		<path fill="#448840" d="M53.061,34.134H30.878c-3.286,0-5.95,2.664-5.95,5.95c0,3.286,2.664,5.95,5.95,5.95h22.182
			c3.286,0,5.95-2.664,5.95-5.95C59.01,36.798,56.347,34.134,53.061,34.134z"/>
		<path fill="#448840" d="M126.999,39.728c0-15.962-12.986-28.95-28.949-28.95S69.1,23.765,69.1,39.728s12.987,28.95,28.95,28.95
			S126.999,55.69,126.999,39.728z M80.999,39.728c0-9.401,7.649-17.05,17.05-17.05c9.402,0,17.05,7.649,17.05,17.05
			s-7.648,17.051-17.05,17.051C88.648,56.779,80.999,49.129,80.999,39.728z"/>
		<path fill="#448840" d="M178.53,56.551H164.75c-10.025,0-16.18-9.591-16.18-16.467V17.667c0-3.286-2.664-5.95-5.949-5.95
			c-3.287,0-5.951,2.664-5.951,5.95v22.417c0,13.417,11.533,28.368,28.08,28.368h13.779c3.285,0,5.949-2.664,5.949-5.95
			S181.815,56.551,178.53,56.551z"/>
		<path fill="#448840" d="M238.235,11.717c-3.285,0-5.947,2.664-5.947,5.95v39.197h-20.775c-3.471,0-12.316-6.473-12.316-14.597
			v-24.6c0-3.113-2.523-5.637-5.637-5.637c-3.111,0-5.637,2.523-5.637,5.637v24.6c0,14.761,14.313,25.87,23.59,25.87h18.967
			c-5.18,9.902-19.814,11.14-20.629,11.199c-3.271,0.228-5.746,3.061-5.525,6.336c0.211,3.143,2.826,5.551,5.93,5.551
			c0.135,0,0.27-0.005,0.406-0.014c0.332-0.021,8.221-0.589,16.152-4.378c11.203-5.351,17.373-14.726,17.373-26.401V17.667
			C244.186,14.381,241.522,11.717,238.235,11.717z"/>
		<path fill="#448840" d="M30.422,88.643c-0.015,0-0.046,0-0.062,0c-0.557,0.046-1.669,0.12-2.55,0.12
			c-1.515,0-2.689-0.891-2.689-3.427v-2.099c0-2.567,1.175-3.428,2.689-3.428c0.896,0,2.04,0.092,2.596,0.136
			c0.015,0,0.03,0,0.046,0c0.154,0,0.186-0.075,0.186-0.166v-0.771c0-0.136-0.108-0.18-0.248-0.196
			c-0.68-0.105-1.622-0.24-2.596-0.24c-1.901,0-4.08,0.966-4.08,4.665v2.099c0,3.669,2.179,4.665,4.08,4.665
			c1.313,0,1.916-0.075,2.565-0.196c0.17-0.029,0.309-0.12,0.309-0.302v-0.618C30.669,88.718,30.591,88.643,30.422,88.643z"/>
		<path fill="#448840" d="M35.892,78.573c-2.427,0-4.188,1.389-4.188,4.74v1.948c0,3.352,1.761,4.74,4.188,4.74
			c2.426,0,4.172-1.389,4.172-4.74v-1.948C40.064,79.961,38.318,78.573,35.892,78.573z M38.642,85.261
			c0,2.536-1.066,3.502-2.75,3.502c-1.7,0-2.766-0.966-2.766-3.502v-1.948c0-2.537,1.082-3.503,2.766-3.503
			c1.7,0,2.75,0.966,2.75,3.503V85.261z"/>
		<path fill="#448840" d="M48.485,88.763h-2.983c-1.638,0-1.9-0.422-1.9-1.57V78.98c0-0.167-0.139-0.302-0.309-0.302h-0.788
			c-0.17,0-0.31,0.135-0.31,0.302v8.213c0,2.492,1.638,2.809,3.292,2.809c1.453,0,2.611-0.075,3.013-0.135
			c0.093-0.015,0.155-0.121,0.155-0.212v-0.709C48.655,88.839,48.593,88.763,48.485,88.763z"/>
		<path fill="#448840" d="M55.129,84.975c1.406-0.363,2.426-1.359,2.426-3.051v-0.106c0-2.445-1.885-3.245-4.327-3.245
			c-0.896,0-2.055,0.044-2.72,0.12c-0.278,0.03-0.371,0.12-0.371,0.332v10.569c0,0.167,0.124,0.302,0.278,0.302h0.834
			c0.17,0,0.278-0.15,0.278-0.302v-4.439c0.819,0.03,1.189,0.046,1.7,0.046c0.092,0,0.17,0,0.263,0c0.046,0,0.093,0,0.139,0
			l2.766,4.499c0.123,0.196,0.216,0.196,0.401,0.196h0.989c0.124,0,0.201-0.091,0.201-0.196c0-0.045-0.015-0.09-0.046-0.135
			L55.129,84.975z M53.229,84.023c-0.356,0-1.02-0.015-1.7-0.031v-4.136c0.371-0.046,1.221-0.046,1.7-0.046
			c1.932,0,2.936,0.498,2.936,2.008v0.106C56.165,83.555,55.129,84.023,53.229,84.023z"/>
		<path fill="#448840" d="M67.367,78.678h-0.834c-0.171,0-0.294,0.135-0.294,0.287v6.854c0,1.964-0.618,3.005-2.534,3.005
			c-1.917,0-2.535-1.058-2.535-3.005v-6.854c0-0.167-0.139-0.287-0.293-0.287h-0.835c-0.17,0-0.293,0.135-0.293,0.287v6.854
			c0,2.884,1.453,4.182,3.956,4.182c2.503,0,3.956-1.298,3.956-4.182v-6.854C67.661,78.798,67.522,78.678,67.367,78.678z"/>
		<path fill="#448840" d="M77.04,78.678h-0.943c-0.123,0-0.216,0.105-0.263,0.211l-2.148,4.892
			c-0.154,0.348-0.247,0.393-0.355,0.393c-0.092,0-0.201-0.045-0.355-0.393l-2.133-4.892c-0.046-0.105-0.17-0.211-0.278-0.211
			h-0.942c-0.155,0-0.263,0.089-0.263,0.211c0,0.046,0.016,0.105,0.046,0.165l2.379,5.256c0.278,0.604,0.557,0.891,0.835,0.996
			v4.288c0,0.151,0.124,0.302,0.278,0.302h0.85c0.154,0,0.278-0.15,0.278-0.302v-4.288c0.278-0.121,0.556-0.393,0.834-0.996
			l2.396-5.256c0.03-0.06,0.046-0.119,0.046-0.165C77.303,78.767,77.195,78.678,77.04,78.678z"/>
		<path fill="#448840" d="M86.11,78.678h-7.433c-0.169,0-0.309,0.12-0.309,0.271v0.665c0,0.165,0.139,0.241,0.309,0.241h3.014v9.738
			c0,0.167,0.124,0.302,0.278,0.302h0.85c0.17,0,0.278-0.15,0.278-0.302v-9.738h3.013c0.17,0,0.294-0.091,0.294-0.241V78.95
			C86.404,78.784,86.28,78.678,86.11,78.678z"/>
		<path fill="#448840" d="M94.424,84.068h-0.835c-0.17,0-0.278,0.137-0.278,0.302v4.319c-0.37,0.029-1.004,0.091-1.947,0.091
			c-1.437,0-2.596-0.982-2.596-3.474v-2.023c0-2.718,1.298-3.473,2.735-3.473c1.313,0,2.024,0.029,2.936,0.106
			c0.015,0,0.046,0,0.062,0c0.139,0,0.201-0.046,0.201-0.151v-0.756c0-0.15-0.124-0.211-0.263-0.226
			c-0.587-0.091-1.499-0.211-2.936-0.211c-1.979,0-4.141,1.042-4.141,4.71v2.023c0,3.457,2.07,4.695,4.002,4.695
			c1.453,0,2.318-0.105,3.075-0.226c0.17-0.03,0.278-0.166,0.278-0.333V84.37C94.717,84.205,94.578,84.068,94.424,84.068z"/>
		<path fill="#448840" d="M102.119,84.975c1.406-0.363,2.426-1.359,2.426-3.051v-0.106c0-2.445-1.885-3.245-4.327-3.245
			c-0.896,0-2.056,0.044-2.72,0.12c-0.278,0.03-0.371,0.12-0.371,0.332v10.569c0,0.167,0.124,0.302,0.278,0.302h0.834
			c0.17,0,0.278-0.15,0.278-0.302v-4.439c0.819,0.03,1.189,0.046,1.7,0.046c0.092,0,0.17,0,0.263,0c0.046,0,0.092,0,0.139,0
			l2.766,4.499c0.124,0.196,0.216,0.196,0.402,0.196h0.989c0.124,0,0.201-0.091,0.201-0.196c0-0.045-0.016-0.09-0.046-0.135
			L102.119,84.975z M100.218,84.023c-0.355,0-1.02-0.015-1.7-0.031v-4.136c0.371-0.046,1.221-0.046,1.7-0.046
			c1.932,0,2.936,0.498,2.936,2.008v0.106C103.154,83.555,102.119,84.023,100.218,84.023z"/>
		<path fill="#448840" d="M110.385,78.573c-2.426,0-4.188,1.389-4.188,4.74v1.948c0,3.352,1.761,4.74,4.188,4.74
			s4.172-1.389,4.172-4.74v-1.948C114.558,79.961,112.812,78.573,110.385,78.573z M113.136,85.261c0,2.536-1.066,3.502-2.751,3.502
			c-1.7,0-2.766-0.966-2.766-3.502v-1.948c0-2.537,1.082-3.503,2.766-3.503c1.7,0,2.751,0.966,2.751,3.503V85.261z"/>
		<path fill="#448840" d="M124.262,78.678h-0.835c-0.169,0-0.293,0.135-0.293,0.287v6.854c0,1.964-0.618,3.005-2.534,3.005
			c-1.917,0-2.535-1.058-2.535-3.005v-6.854c0-0.167-0.139-0.287-0.293-0.287h-0.834c-0.17,0-0.293,0.135-0.293,0.287v6.854
			c0,2.884,1.453,4.182,3.956,4.182c2.503,0,3.956-1.298,3.956-4.182v-6.854C124.555,78.798,124.416,78.678,124.262,78.678z"/>
		<path fill="#448840" d="M129.854,78.573c-0.896,0-1.9,0.044-2.564,0.12c-0.232,0.03-0.371,0.166-0.371,0.378v10.523
			c0,0.167,0.123,0.302,0.277,0.302h0.835c0.171,0,0.278-0.15,0.278-0.302v-4.243c0.402,0.03,1.051,0.076,1.545,0.076
			c2.504,0,4.326-0.861,4.326-3.382v-0.197C134.18,79.417,132.358,78.573,129.854,78.573z M132.776,82.045
			c0,1.57-0.805,2.233-2.922,2.233c-0.4,0-1.189-0.045-1.545-0.06v-4.425c0.371-0.029,1.066-0.061,1.545-0.061
			c1.994,0,2.922,0.59,2.922,2.114V82.045z"/>
		<path fill="#448840" d="M146.202,78.663c-0.648-0.061-2.102-0.09-3.014-0.09c-2.162,0-3.291,0.8-3.291,2.807v5.813
			c0,2.009,1.129,2.809,3.291,2.809c0.912,0,2.426-0.015,3.014-0.075c0.092-0.014,0.154-0.121,0.154-0.211v-0.77
			c0-0.106-0.063-0.183-0.17-0.183h-2.982c-1.637,0-1.9-0.422-1.9-1.57v-2.536h4.744c0.17,0,0.309-0.136,0.309-0.302v-0.574
			c0-0.165-0.139-0.302-0.309-0.302h-4.744v-2.1c0-1.146,0.264-1.569,1.9-1.569h2.982c0.107,0,0.17-0.076,0.17-0.181v-0.756
			C146.356,78.784,146.293,78.678,146.202,78.663z"/>
		<path fill="#448840" d="M156.231,78.678h-0.818c-0.156,0-0.277,0.135-0.277,0.287v8.832c0,0.016,0,0.046-0.018,0.046l-0.031-0.046
			l-4.742-8.817c-0.125-0.227-0.203-0.302-0.635-0.302h-0.85c-0.248,0-0.449,0.181-0.449,0.422v10.615
			c0,0.151,0.125,0.181,0.279,0.181h0.805c0.154,0,0.275-0.135,0.275-0.286v-8.817c0-0.031,0-0.046,0.018-0.046
			c0.014,0,0.031,0.015,0.047,0.046l4.773,8.862c0.078,0.15,0.248,0.241,0.494,0.241h0.959c0.246,0,0.449-0.196,0.449-0.437V78.965
			C156.51,78.813,156.401,78.678,156.231,78.678z"/>
		<path fill="#448840" d="M165.223,78.663c-0.648-0.061-2.102-0.09-3.014-0.09c-2.162,0-3.291,0.8-3.291,2.807v5.813
			c0,2.009,1.129,2.809,3.291,2.809c0.912,0,2.428-0.015,3.014-0.075c0.094-0.014,0.154-0.121,0.154-0.211v-0.77
			c0-0.106-0.061-0.183-0.17-0.183h-2.98c-1.639,0-1.902-0.422-1.902-1.57v-2.536h4.744c0.17,0,0.309-0.136,0.309-0.302v-0.574
			c0-0.165-0.139-0.302-0.309-0.302h-4.744v-2.1c0-1.146,0.264-1.569,1.902-1.569h2.98c0.109,0,0.17-0.076,0.17-0.181v-0.756
			C165.377,78.784,165.317,78.678,165.223,78.663z"/>
		<path fill="#448840" d="M172.424,84.975c1.404-0.363,2.426-1.359,2.426-3.051v-0.106c0-2.445-1.885-3.245-4.326-3.245
			c-0.896,0-2.057,0.044-2.721,0.12c-0.277,0.03-0.371,0.12-0.371,0.332v10.569c0,0.167,0.125,0.302,0.279,0.302h0.834
			c0.17,0,0.277-0.15,0.277-0.302v-4.439c0.82,0.03,1.189,0.046,1.701,0.046c0.094,0,0.17,0,0.262,0c0.047,0,0.092,0,0.141,0
			l2.766,4.499c0.123,0.196,0.215,0.196,0.402,0.196h0.988c0.123,0,0.201-0.091,0.201-0.196c0-0.045-0.016-0.09-0.047-0.135
			L172.424,84.975z M170.524,84.023c-0.355,0-1.021-0.015-1.701-0.031v-4.136c0.371-0.046,1.221-0.046,1.701-0.046
			c1.932,0,2.936,0.498,2.936,2.008v0.106C173.459,83.555,172.424,84.023,170.524,84.023z"/>
		<path fill="#448840" d="M183.536,84.068H182.7c-0.17,0-0.277,0.137-0.277,0.302v4.319c-0.371,0.029-1.006,0.091-1.947,0.091
			c-1.438,0-2.596-0.982-2.596-3.474v-2.023c0-2.718,1.297-3.473,2.734-3.473c1.313,0,2.025,0.029,2.936,0.106
			c0.018,0,0.047,0,0.063,0c0.139,0,0.201-0.046,0.201-0.151v-0.756c0-0.15-0.125-0.211-0.264-0.226
			c-0.588-0.091-1.498-0.211-2.936-0.211c-1.979,0-4.143,1.042-4.143,4.71v2.023c0,3.457,2.072,4.695,4.004,4.695
			c1.451,0,2.316-0.105,3.074-0.226c0.17-0.03,0.277-0.166,0.277-0.333V84.37C183.827,84.205,183.688,84.068,183.536,84.068z"/>
		<path fill="#448840" d="M193.252,78.678h-0.941c-0.125,0-0.217,0.105-0.264,0.211l-2.146,4.892
			c-0.156,0.348-0.248,0.393-0.355,0.393c-0.094,0-0.201-0.045-0.355-0.393l-2.133-4.892c-0.047-0.105-0.17-0.211-0.279-0.211
			h-0.941c-0.154,0-0.264,0.089-0.264,0.211c0,0.046,0.016,0.105,0.047,0.165L188,84.31c0.277,0.604,0.555,0.891,0.834,0.996v4.288
			c0,0.151,0.123,0.302,0.277,0.302h0.85c0.154,0,0.279-0.15,0.279-0.302v-4.288c0.277-0.121,0.557-0.393,0.834-0.996l2.395-5.256
			c0.031-0.06,0.047-0.119,0.047-0.165C193.516,78.767,193.409,78.678,193.252,78.678z"/>
	</g>
</g>
</svg>
